<svg width="295.8244384765625px" height="121.39999999999999px" xmlns="http://www.w3.org/2000/svg" viewBox="102.08778076171876 14.300000000000004 295.8244384765625 121.39999999999999" style="background:#f2eddb" preserveAspectRatio="xMidYMid"><defs><filter id="editing-vintage" x="-100%" y="-100%" width="300%" height="300%"><feConvolveMatrix in="SourceGraphic" result="extrude" order="9,9" divisor="1" kernelMatrix="1,0,0,0,0,0,0,0,0,0,1,0,0,0,0,0,0,0,0,0,1,0,0,0,0,0,0,0,0,0,1,0,0,0,0,0,0,0,0,0,1,0,0,0,0,0,0,0,0,0,1,0,0,0,0,0,0,0,0,0,1,0,0,0,0,0,0,0,0,0,1,0,0,0,0,0,0,0,0,0,1"> </feConvolveMatrix><feFlood flood-color="#900" result="flood-extrude"></feFlood><feComposite operator="in" in="flood-extrude" in2="extrude" result="extrude-color"></feComposite><feOffset dx="5" dy="5" in="extrude-color" result="extrude-offset"></feOffset><feColorMatrix in="SourceGraphic" result="stroke" type="matrix" values="0 0 0 0 0 0 0 0 0 0 0 0 0 0 0 0 1 0 0 0 "></feColorMatrix><feColorMatrix in="SourceGraphic" result="fill" type="matrix" values="0 0 0 0 0 0 0 0 0 0 0 0 0 0 0 1 0 0 1 0 "></feColorMatrix><feConvolveMatrix in="stroke" result="inner-shadow" order="5,5" divisor="1" kernelMatrix="1 0 0 0 0 0 1 0 0 0 0 0 1 0 0 0 0 0 1 0 0 0 0 0 1 "></feConvolveMatrix><feOffset dx="1" dy="1" in="inner-shadow" result="offset"></feOffset><feComposite operator="in" in="offset" in2="SourceAlpha" result="comp"></feComposite><feFlood flood-color="#000" result="flood3"></feFlood><feComposite operator="in" in="flood3" in2="comp" result="comp2"></feComposite><feColorMatrix in="comp2" result="comp3" type="matrix" values="1 0 0 0 0 0 1 0 0 0 0 0 1 0 0 0 0 0 0.5 0 "></feColorMatrix><feFlood flood-color="#f00" result="flood1"></feFlood><feComposite operator="in" in="flood1" in2="fill" result="fill2"></feComposite><feFlood flood-color="#fff" result="flood2"></feFlood><feComposite operator="in" in="flood2" in2="stroke" result="stroke2"></feComposite><feMerge result="obj"><feMergeNode in="extrude-offset"></feMergeNode><feMergeNode in="fill2"></feMergeNode><feMergeNode in="comp3"></feMergeNode></feMerge><feConvolveMatrix in="SourceAlpha" result="shadow" order="9,9" divisor="1" kernelMatrix="1,0,0,0,0,0,0,0,0,0,1,0,0,0,0,0,0,0,0,0,1,0,0,0,0,0,0,0,0,0,1,0,0,0,0,0,0,0,0,0,1,0,0,0,0,0,0,0,0,0,1,0,0,0,0,0,0,0,0,0,1,0,0,0,0,0,0,0,0,0,1,0,0,0,0,0,0,0,0,0,1"></feConvolveMatrix><feOffset dx="15" dy="15" in="shadow" result="shadow-offset"></feOffset><feFlood flood-color="#444" result="flood-shadow"></feFlood><feComposite operator="in" in="flood-shadow" in2="shadow-offset" result="shadow-color"></feComposite><feMerge><feMergeNode in="shadow-color"></feMergeNode><feMergeNode in="obj"></feMergeNode></feMerge></filter></defs><g transform="translate(-9,-9)"><g filter="url(#editing-vintage)"><g transform="translate(149.3889901638031, 98.68000030517578)"><path d="M28.16 1.28L28.16 1.28L28.16 1.28Q20.42 1.28 20.42-4.74L20.42-4.74L20.42-4.74Q20.48-6.40 20.99-9.22L20.99-9.22L22.14-15.10L22.14-15.10Q23.87-23.42 23.87-25.28L23.87-25.28L23.87-25.28Q23.87-28.99 21.70-28.99L21.70-28.99L21.70-28.99Q18.05-28.99 16.13-19.46L16.13-19.46L12.35 0L-0.51 1.28L6.14-32.70L16.64-33.92L15.62-27.65L15.62-27.65Q18.62-33.92 27.84-33.92L27.84-33.92L27.84-33.92Q32.32-33.92 34.21-32.03L34.21-32.03L34.21-32.03Q36.10-30.14 36.10-25.92L36.10-25.92L36.10-25.92Q36.10-21.95 34.05-12.67L34.05-12.67L34.05-12.67Q33.09-8.51 33.09-6.94L33.09-6.94L33.09-6.94Q33.09-5.38 33.95-4.48L33.95-4.48L33.95-4.48Q34.82-3.58 36.10-3.46L36.10-3.46L36.10-3.46Q35.46-1.28 33.25 0L33.25 0L33.25 0Q31.04 1.28 28.16 1.28ZM67.14-10.82L67.14-10.82L67.14-10.82Q68.74-9.73 68.74-7.33L68.74-7.33L68.74-7.33Q68.74-4.93 67.52-3.39L67.52-3.39L67.52-3.39Q66.30-1.86 64.32-0.83L64.32-0.83L64.32-0.83Q60.22 1.28 55.81 1.28L55.81 1.28L55.81 1.28Q51.39 1.28 48.80 0.32L48.80 0.32L48.80 0.32Q46.21-0.64 44.48-2.43L44.48-2.43L44.48-2.43Q41.09-5.82 41.09-12.03L41.09-12.03L41.09-12.03Q41.09-21.70 46.34-27.58L46.34-27.58L46.34-27.58Q51.97-33.92 61.76-33.92L61.76-33.92L61.76-33.92Q67.84-33.92 70.85-31.36L70.85-31.36L70.85-31.36Q73.09-29.44 73.09-26.30L73.09-26.30L73.09-26.30Q73.09-15.04 53.63-15.04L53.63-15.04L53.63-15.04Q53.38-13.38 53.38-11.97L53.38-11.97L53.38-11.97Q53.38-9.02 54.69-7.90L54.69-7.90L54.69-7.90Q56-6.78 58.43-6.78L58.43-6.78L58.43-6.78Q60.86-6.78 63.46-7.90L63.46-7.90L63.46-7.90Q66.05-9.02 67.14-10.82ZM54.08-17.79L54.08-17.79L54.08-17.79Q58.62-17.79 61.25-20.61L61.25-20.61L61.25-20.61Q63.87-23.30 63.87-27.58L63.87-27.58L63.87-27.58Q63.87-29.06 63.33-29.86L63.33-29.86L63.33-29.86Q62.78-30.66 61.70-30.66L61.70-30.66L61.70-30.66Q60.61-30.66 59.68-30.24L59.68-30.24L59.68-30.24Q58.75-29.82 57.79-28.42L57.79-28.42L57.79-28.42Q55.42-25.22 54.08-17.79ZM95.30-17.98L95.30-17.98L95.30-17.98Q97.60-22.08 97.60-26.24L97.60-26.24L97.60-26.24Q97.60-28.99 95.62-28.99L95.62-28.99L95.62-28.99Q94.08-28.99 92.48-26.37L92.48-26.37L92.48-26.37Q90.82-23.74 90.30-20.35L90.30-20.35L86.98 0L73.73 1.28L80.26-32.64L90.82-33.92L89.66-27.46L89.66-27.46Q92.80-33.92 99.84-33.92L99.84-33.92L99.84-33.92Q103.55-33.92 105.57-32L105.57-32L105.57-32Q107.58-30.08 107.58-26.14L107.58-26.14L107.58-26.14Q107.58-22.21 104.99-19.71L104.99-19.71L104.99-19.71Q102.40-17.22 97.98-17.22L97.98-17.22L97.98-17.22Q96.06-17.22 95.30-17.98ZM128.77-33.92L128.77-33.92L128.77-33.92Q131.07-33.92 132.86-33.41L132.86-33.41L132.86-33.41Q132.93-33.66 133.06-34.37L133.06-34.37L133.38-36.35L133.38-36.35Q133.63-37.63 134.02-39.74L134.02-39.74L135.04-44.80L147.78-46.08L140.67-8.96L140.67-8.96Q140.61-8.58 140.61-7.94L140.61-7.94L140.61-6.91L140.61-6.91Q140.61-5.50 141.31-4.45L141.31-4.45L141.31-4.45Q142.02-3.39 143.17-3.39L143.17-3.39L143.17-3.39Q141.89-0.38 137.98 0.90L137.98 0.90L137.98 0.90Q136.64 1.28 134.75 1.28L134.75 1.28L134.75 1.28Q132.86 1.28 131.14 0.29L131.14 0.29L131.14 0.29Q129.41-0.70 128.90-2.37L128.90-2.37L128.90-2.37Q127.87-0.70 125.82 0.29L125.82 0.29L125.82 0.29Q123.78 1.28 120.80 1.28L120.80 1.28L120.80 1.28Q117.82 1.28 115.36 0.51L115.36 0.51L115.36 0.51Q112.90-0.26 111.36-1.92L111.36-1.92L111.36-1.92Q108.54-5.18 108.54-12.61L108.54-12.61L108.54-12.61Q108.54-22.21 114.18-28.03L114.18-28.03L114.18-28.03Q119.81-33.92 128.77-33.92ZM128.32-30.08L128.32-30.08L128.32-30.08Q125.95-30.08 124.67-27.52L124.67-27.52L124.67-27.52Q123.39-24.96 122.08-18.62L122.08-18.62L122.08-18.62Q120.77-12.29 120.77-6.59L120.77-6.59L120.77-6.59Q120.77-2.69 123.07-2.69L123.07-2.69L123.07-2.69Q125.12-2.69 126.56-4.74L126.56-4.74L126.56-4.74Q128-6.78 128.58-10.18L128.58-10.18L132.03-28.93L132.03-28.93Q130.69-30.08 128.32-30.08ZM163.90-3.52L163.90-3.52L163.90-3.52Q161.92 1.28 155.58 1.28L155.58 1.28L155.58 1.28Q152.38 1.28 150.34-0.96L150.34-0.96L150.34-0.96Q148.67-2.82 148.67-4.93L148.67-4.93L148.67-4.93Q148.67-9.73 150.91-20.22L150.91-20.22L155.58-44.80L168.58-46.08L162.37-13.70L162.37-13.70Q161.28-8.96 161.28-7.30L161.28-7.30L161.28-7.30Q161.28-3.65 163.90-3.52ZM195.26-10.82L195.26-10.82L195.26-10.82Q196.86-9.73 196.86-7.33L196.86-7.33L196.86-7.33Q196.86-4.93 195.65-3.39L195.65-3.39L195.65-3.39Q194.43-1.86 192.45-0.83L192.45-0.83L192.45-0.83Q188.35 1.28 183.94 1.28L183.94 1.28L183.94 1.28Q179.52 1.28 176.93 0.32L176.93 0.32L176.93 0.32Q174.34-0.64 172.61-2.43L172.61-2.43L172.61-2.43Q169.22-5.82 169.22-12.03L169.22-12.03L169.22-12.03Q169.22-21.70 174.46-27.58L174.46-27.58L174.46-27.58Q180.10-33.92 189.89-33.92L189.89-33.92L189.89-33.92Q195.97-33.92 198.98-31.36L198.98-31.36L198.98-31.36Q201.22-29.44 201.22-26.30L201.22-26.30L201.22-26.30Q201.22-15.04 181.76-15.04L181.76-15.04L181.76-15.04Q181.50-13.38 181.50-11.97L181.50-11.97L181.50-11.97Q181.50-9.02 182.82-7.90L182.82-7.90L182.82-7.90Q184.13-6.78 186.56-6.78L186.56-6.78L186.56-6.78Q188.99-6.78 191.58-7.90L191.58-7.90L191.58-7.90Q194.18-9.02 195.26-10.82ZM182.21-17.79L182.21-17.79L182.21-17.79Q186.75-17.79 189.38-20.61L189.38-20.61L189.38-20.61Q192-23.30 192-27.58L192-27.58L192-27.58Q192-29.06 191.46-29.86L191.46-29.86L191.46-29.86Q190.91-30.66 189.82-30.66L189.82-30.66L189.82-30.66Q188.74-30.66 187.81-30.24L187.81-30.24L187.81-30.24Q186.88-29.82 185.92-28.42L185.92-28.42L185.92-28.42Q183.55-25.22 182.21-17.79Z" fill="#f00" stroke="#0f0" stroke-width="1.8"></path></g></g><g><g transform="translate(149.38899779319763, 98.68000030517578)"><path d="M28.16 1.28L28.16 1.28L28.16 1.28Q20.42 1.28 20.42-4.74L20.42-4.74L20.42-4.74Q20.48-6.40 20.99-9.22L20.99-9.22L22.14-15.10L22.14-15.10Q23.87-23.42 23.87-25.28L23.87-25.28L23.87-25.28Q23.87-28.99 21.70-28.99L21.70-28.99L21.70-28.99Q18.05-28.99 16.13-19.46L16.13-19.46L12.35 0L-0.51 1.28L6.14-32.70L16.64-33.92L15.62-27.65L15.62-27.65Q18.62-33.92 27.84-33.92L27.84-33.92L27.84-33.92Q32.32-33.92 34.21-32.03L34.21-32.03L34.21-32.03Q36.10-30.14 36.10-25.92L36.10-25.92L36.10-25.92Q36.10-21.95 34.05-12.67L34.05-12.67L34.05-12.67Q33.09-8.51 33.09-6.94L33.09-6.94L33.09-6.94Q33.09-5.38 33.95-4.48L33.95-4.48L33.95-4.48Q34.82-3.58 36.10-3.46L36.10-3.46L36.10-3.46Q35.46-1.28 33.25 0L33.25 0L33.25 0Q31.04 1.28 28.16 1.28ZM67.14-10.82L67.14-10.82L67.14-10.82Q68.74-9.73 68.74-7.33L68.74-7.33L68.74-7.33Q68.74-4.93 67.52-3.39L67.52-3.39L67.52-3.39Q66.30-1.86 64.32-0.83L64.32-0.83L64.32-0.83Q60.22 1.28 55.81 1.28L55.81 1.28L55.81 1.28Q51.39 1.28 48.80 0.32L48.80 0.32L48.80 0.32Q46.21-0.64 44.48-2.43L44.48-2.43L44.48-2.43Q41.09-5.82 41.09-12.03L41.09-12.03L41.09-12.03Q41.09-21.70 46.34-27.58L46.34-27.58L46.34-27.58Q51.97-33.92 61.76-33.92L61.76-33.92L61.76-33.92Q67.84-33.92 70.85-31.36L70.85-31.36L70.85-31.36Q73.09-29.44 73.09-26.30L73.09-26.30L73.09-26.30Q73.09-15.04 53.63-15.04L53.63-15.04L53.63-15.04Q53.38-13.38 53.38-11.97L53.38-11.97L53.38-11.97Q53.38-9.02 54.69-7.90L54.69-7.90L54.69-7.90Q56-6.78 58.43-6.78L58.43-6.78L58.43-6.78Q60.86-6.78 63.46-7.90L63.46-7.90L63.46-7.90Q66.05-9.02 67.14-10.82ZM54.08-17.79L54.08-17.79L54.08-17.79Q58.62-17.79 61.25-20.61L61.25-20.61L61.25-20.61Q63.87-23.30 63.87-27.58L63.87-27.58L63.87-27.58Q63.87-29.06 63.33-29.86L63.33-29.86L63.33-29.86Q62.78-30.66 61.70-30.66L61.70-30.66L61.70-30.66Q60.61-30.66 59.68-30.24L59.68-30.24L59.68-30.24Q58.75-29.82 57.79-28.42L57.79-28.42L57.79-28.42Q55.42-25.22 54.08-17.79ZM95.30-17.98L95.30-17.98L95.30-17.98Q97.60-22.08 97.60-26.24L97.60-26.24L97.60-26.24Q97.60-28.99 95.62-28.99L95.62-28.99L95.62-28.99Q94.08-28.99 92.48-26.37L92.48-26.37L92.48-26.37Q90.82-23.74 90.30-20.35L90.30-20.35L86.98 0L73.73 1.28L80.26-32.64L90.82-33.92L89.66-27.46L89.66-27.46Q92.80-33.92 99.84-33.92L99.84-33.92L99.84-33.92Q103.55-33.92 105.57-32L105.57-32L105.57-32Q107.58-30.08 107.58-26.14L107.58-26.14L107.58-26.14Q107.58-22.21 104.99-19.71L104.99-19.71L104.99-19.71Q102.40-17.22 97.98-17.22L97.98-17.22L97.98-17.22Q96.06-17.22 95.30-17.98ZM128.77-33.92L128.77-33.92L128.77-33.92Q131.07-33.92 132.86-33.41L132.86-33.41L132.86-33.41Q132.93-33.66 133.06-34.37L133.06-34.37L133.38-36.35L133.38-36.35Q133.63-37.63 134.02-39.74L134.02-39.74L135.04-44.80L147.78-46.08L140.67-8.96L140.67-8.96Q140.61-8.58 140.61-7.94L140.61-7.94L140.61-6.91L140.61-6.91Q140.61-5.50 141.31-4.45L141.31-4.45L141.31-4.45Q142.02-3.39 143.17-3.39L143.17-3.39L143.17-3.39Q141.89-0.38 137.98 0.90L137.98 0.90L137.98 0.90Q136.64 1.28 134.75 1.28L134.75 1.28L134.75 1.28Q132.86 1.28 131.14 0.29L131.14 0.29L131.14 0.29Q129.41-0.70 128.90-2.37L128.90-2.37L128.90-2.37Q127.87-0.70 125.82 0.29L125.82 0.29L125.82 0.29Q123.78 1.28 120.80 1.28L120.80 1.28L120.80 1.28Q117.82 1.28 115.36 0.51L115.36 0.51L115.36 0.51Q112.90-0.26 111.36-1.92L111.36-1.92L111.36-1.92Q108.54-5.18 108.54-12.61L108.54-12.61L108.54-12.61Q108.54-22.21 114.18-28.03L114.18-28.03L114.18-28.03Q119.81-33.92 128.77-33.92ZM128.32-30.08L128.32-30.08L128.32-30.08Q125.95-30.08 124.67-27.52L124.67-27.52L124.67-27.52Q123.39-24.96 122.08-18.62L122.08-18.62L122.08-18.62Q120.77-12.29 120.77-6.59L120.77-6.59L120.77-6.59Q120.77-2.69 123.07-2.69L123.07-2.69L123.07-2.69Q125.12-2.69 126.56-4.74L126.56-4.74L126.56-4.74Q128-6.78 128.58-10.18L128.58-10.18L132.03-28.93L132.03-28.93Q130.69-30.08 128.32-30.08ZM163.90-3.52L163.90-3.52L163.90-3.52Q161.92 1.28 155.58 1.28L155.58 1.28L155.58 1.28Q152.38 1.28 150.34-0.96L150.34-0.96L150.34-0.96Q148.67-2.82 148.67-4.93L148.67-4.93L148.67-4.93Q148.67-9.73 150.91-20.22L150.91-20.22L155.58-44.80L168.58-46.08L162.37-13.70L162.37-13.70Q161.28-8.96 161.28-7.30L161.28-7.30L161.28-7.30Q161.28-3.65 163.90-3.52ZM195.26-10.82L195.26-10.82L195.26-10.82Q196.86-9.73 196.86-7.33L196.86-7.33L196.86-7.33Q196.86-4.93 195.65-3.39L195.65-3.39L195.65-3.39Q194.43-1.86 192.45-0.83L192.45-0.83L192.45-0.83Q188.35 1.28 183.94 1.28L183.94 1.28L183.94 1.28Q179.52 1.28 176.93 0.32L176.93 0.32L176.93 0.32Q174.34-0.64 172.61-2.43L172.61-2.43L172.61-2.43Q169.22-5.82 169.22-12.03L169.22-12.03L169.22-12.03Q169.22-21.70 174.46-27.58L174.46-27.58L174.46-27.58Q180.10-33.92 189.89-33.92L189.89-33.92L189.89-33.92Q195.97-33.92 198.98-31.36L198.98-31.36L198.98-31.36Q201.22-29.44 201.22-26.30L201.22-26.30L201.22-26.30Q201.22-15.04 181.76-15.04L181.76-15.04L181.76-15.04Q181.50-13.38 181.50-11.97L181.50-11.97L181.50-11.97Q181.50-9.02 182.82-7.90L182.82-7.90L182.82-7.90Q184.13-6.78 186.56-6.78L186.56-6.78L186.56-6.78Q188.99-6.78 191.58-7.90L191.58-7.90L191.58-7.90Q194.18-9.02 195.26-10.82ZM182.21-17.79L182.21-17.79L182.21-17.79Q186.75-17.79 189.38-20.61L189.38-20.61L189.38-20.61Q192-23.30 192-27.58L192-27.58L192-27.58Q192-29.06 191.46-29.86L191.46-29.86L191.46-29.86Q190.91-30.66 189.82-30.66L189.82-30.66L189.82-30.66Q188.74-30.66 187.81-30.24L187.81-30.24L187.81-30.24Q186.88-29.82 185.92-28.42L185.92-28.42L185.92-28.42Q183.55-25.22 182.21-17.79Z" fill="none" stroke="#fff" stroke-width="2.1"></path></g></g></g><style>text {
  font-size: 64px;
  font-family: Arial Black;
  dominant-baseline: central;
  text-anchor: middle;
}</style></svg>